<svg width="203" height="19" viewBox="0 0 203 19" fill="none" xmlns="http://www.w3.org/2000/svg">
<g clip-path="url(#clip0_827_1460)">
<path d="M0.820616 18.5591L23.5381 18.5591L23.5381 0.529343L0.820616 0.529343L0.820616 18.5591Z" fill="#19191E"/>
<path d="M34.8968 18.559C41.1701 18.559 46.2556 14.5229 46.2556 9.54417C46.2556 4.56539 41.1701 0.529297 34.8968 0.529297C28.6236 0.529297 23.5381 4.56539 23.5381 9.54417C23.5381 14.5229 28.6236 18.559 34.8968 18.559Z" fill="#19191E"/>
<path d="M50.4919 0.51123H64.8076L69.0085 9.54413L64.8076 18.559H50.4919L46.291 9.54413L50.4919 0.51123Z" fill="#19191E"/>
<path d="M185.878 18.5406C183.805 18.5406 181.875 17.9637 180.415 16.8999L181.677 14.6823C183.029 15.5297 184.526 16.0165 185.878 16.0165C187.23 16.0165 188.294 15.5297 188.294 14.6642C188.294 13.7988 187.591 13.4743 185.626 13.0776C183.083 12.5548 180.974 11.6713 180.974 9.1291C180.974 6.58691 183.462 5.14453 186.058 5.14453C188.655 5.14453 189.61 5.64936 191.089 6.58691L189.881 8.78654C188.727 8.13747 187.338 7.68672 186.112 7.68672C184.886 7.68672 183.895 8.20959 183.895 9.03895C183.895 9.86832 185.481 10.265 186.996 10.6436C189.899 11.2566 191.269 12.5007 191.269 14.502C191.269 16.5033 189.051 18.5587 185.878 18.5587V18.5406Z" fill="#19191E"/>
<path d="M145.455 18.144H142.264V5.54119H145.455V7.74081C146.465 5.91981 147.745 5.14453 149.818 5.14453H150.215V8.462H149.818C147.096 8.462 145.455 10.0667 145.455 12.6629V18.1259V18.144Z" fill="#19191E"/>
<path d="M197.309 18.5406C195.235 18.5406 193.306 17.9637 191.846 16.8999L193.108 14.6823C194.46 15.5297 195.956 16.0165 197.309 16.0165C198.661 16.0165 199.725 15.5297 199.725 14.6642C199.725 13.7988 199.022 13.4743 197.056 13.0776C194.514 12.5548 192.405 11.6713 192.405 9.1291C192.405 6.58691 194.893 5.14453 197.489 5.14453C200.085 5.14453 201.041 5.64936 202.519 6.58691L201.311 8.78654C200.157 8.13747 198.769 7.68672 197.543 7.68672C196.317 7.68672 195.325 8.20959 195.325 9.03895C195.325 9.86832 196.912 10.265 198.427 10.6436C201.329 11.2566 202.7 12.5007 202.7 14.502C202.7 16.5033 200.482 18.5587 197.309 18.5587V18.5406Z" fill="#19191E"/>
<path d="M106.997 18.144H103.806V5.54119H106.997V7.74081C108.007 5.91981 109.287 5.14453 111.36 5.14453H111.757V8.462H111.36C108.638 8.462 106.997 10.0667 106.997 12.6629V18.1259V18.144Z" fill="#19191E"/>
<path d="M171.742 18.5411C168.173 18.5411 165.378 15.6022 165.378 11.834C165.378 8.0658 168.173 5.12695 171.742 5.12695C175.312 5.12695 175.168 5.8842 176.196 7.23643V5.52361H179.044V18.1084H176.196V16.4136C175.222 17.7658 173.654 18.505 171.742 18.505V18.5411ZM172.247 15.7284C174.393 15.7284 175.871 14.1418 175.871 11.8701C175.871 9.59833 174.393 7.99368 172.247 7.99368C170.102 7.99368 168.587 9.5803 168.587 11.852C168.587 14.1238 170.102 15.7284 172.247 15.7284Z" fill="#19191E"/>
<path d="M155.426 18.1443H152.145V0.51123H158.545C162.403 0.51123 165.09 2.60268 165.09 6.08242C165.09 9.56216 162.349 11.6536 158.491 11.6536H155.426V18.1443ZM155.426 3.35993V8.89506H158.473C160.619 8.89506 161.79 7.92145 161.79 6.11848C161.79 4.31551 160.637 3.3419 158.491 3.3419H155.426V3.35993Z" fill="#19191E"/>
<path d="M134.583 18.5406C130.508 18.5406 127.659 15.8001 127.659 11.8877C127.659 7.9752 130.454 5.14453 134.456 5.14453C138.459 5.14453 140.677 7.66869 140.677 11.2566C140.677 11.9599 140.623 12.1581 140.55 12.6629H130.724C130.724 14.5561 132.365 15.8542 134.727 15.8542C137.089 15.8542 137.467 15.4936 138.657 14.6282L139.919 16.8999C138.513 17.9997 136.241 18.5406 134.583 18.5406ZM130.905 10.3551H137.449C137.395 8.71442 136.223 7.61461 134.384 7.66869C132.491 7.61461 131.157 8.73245 130.905 10.3551Z" fill="#19191E"/>
<path d="M118.536 18.541C114.804 18.541 112.208 15.8004 112.208 11.8339C112.208 7.86736 114.858 5.12684 118.609 5.12684C120.213 5.14487 121.71 5.75788 122.791 6.83967V0.51123H126.019V18.1443H123.17V16.5036C122.142 17.8198 120.484 18.541 118.536 18.541ZM119.131 15.6923C121.277 15.6923 122.791 14.1237 122.791 11.888C122.791 9.65231 121.277 8.0116 119.131 7.99357C116.932 7.99357 115.435 9.58019 115.435 11.8519C115.435 14.1237 116.95 15.7103 119.131 15.7103V15.6923Z" fill="#19191E"/>
<path d="M95.2599 18.5411C91.4015 18.5411 88.3545 15.6022 88.3545 11.834C88.3545 8.0658 91.4015 5.12695 95.2599 5.12695C99.1182 5.12695 102.165 8.0658 102.165 11.834C102.165 15.6022 99.1182 18.5411 95.2599 18.5411ZM95.2599 15.6924C97.4234 15.6924 98.938 14.1058 98.938 11.834C98.938 9.56227 97.4234 7.97565 95.2599 7.97565C93.0963 7.97565 91.5818 9.56227 91.5818 11.834C91.5818 14.1058 93.0963 15.6924 95.2599 15.6924Z" fill="#19191E"/>
<path d="M77.4831 3.03539V7.99357H80.3498C82.0807 7.99357 83.3247 6.98391 83.3247 5.55956C83.3247 4.13521 82.1889 3.03539 80.3498 3.03539H77.4831ZM81.0169 18.1443H74.2197V0.51123H80.5482C84.2443 0.51123 86.5701 2.24209 86.5701 5.07275C86.5701 7.90342 85.5424 8.11978 83.9017 8.69673C85.6145 9.20156 87.1831 10.7702 87.1831 13.1501C87.1831 15.53 84.8392 18.1443 81.035 18.1443H81.0169ZM77.4831 10.4096V15.6202H80.5482C82.4413 15.6382 83.7755 14.5925 83.7755 13.0599C83.7755 11.5274 82.5495 10.4096 80.5482 10.4096H77.4831Z" fill="#19191E"/>
</g>
<defs>
<clipPath id="clip0_827_1460">
<rect width="201.933" height="18.21" fill="white" transform="translate(0.819336 0.51123)"/>
</clipPath>
</defs>
</svg>
