<svg width="1118" height="103" viewBox="0 0 1118 103" fill="none" xmlns="http://www.w3.org/2000/svg">
<g clip-path="url(#clip0_153_4013)">
<path d="M1024.4 102.4C1012.9 102.4 1002.2 99.1999 994.1 93.2999L1001.1 80.9999C1008.6 85.6999 1016.9 88.3998 1024.4 88.3998C1031.9 88.3998 1037.8 85.6998 1037.8 80.8998C1037.8 76.0998 1033.9 74.2999 1023 72.0999C1008.9 69.1999 997.2 64.2999 997.2 50.1999C997.2 36.0999 1011 28.0999 1025.4 28.0999C1039.8 28.0999 1045.1 30.8999 1053.3 36.0999L1046.6 48.2999C1040.2 44.6999 1032.5 42.1999 1025.7 42.1999C1018.9 42.1999 1013.4 45.0999 1013.4 49.6999C1013.4 54.2999 1022.2 56.4999 1030.6 58.5999C1046.7 61.9999 1054.3 68.8999 1054.3 79.9999C1054.3 91.0999 1042 102.5 1024.4 102.5V102.4Z" fill="#FFFDF8"/>
<path d="M800.3 100.2H782.6V30.4H800.3V42.6C805.9 32.5 813 28.2 824.5 28.2H826.7V46.6H824.5C809.4 46.6 800.3 55.4999 800.3 69.8999V100.2Z" fill="#FFFDF8"/>
<path d="M1087.8 102.4C1076.3 102.4 1065.6 99.1999 1057.5 93.2999L1064.5 80.9999C1072 85.6999 1080.3 88.3998 1087.8 88.3998C1095.3 88.3998 1101.2 85.6998 1101.2 80.8998C1101.2 76.0998 1097.3 74.2999 1086.4 72.0999C1072.3 69.1999 1060.6 64.2999 1060.6 50.1999C1060.6 36.0999 1074.4 28.0999 1088.8 28.0999C1103.2 28.0999 1108.5 30.8999 1116.7 36.0999L1110 48.2999C1103.6 44.6999 1095.9 42.1999 1089.1 42.1999C1082.3 42.1999 1076.8 45.0999 1076.8 49.6999C1076.8 54.2999 1085.6 56.4999 1094 58.5999C1110.1 61.9999 1117.7 68.8999 1117.7 79.9999C1117.7 91.0999 1105.4 102.5 1087.8 102.5V102.4Z" fill="#FFFDF8"/>
<path d="M587 100.2H569.3V30.4H587V42.6C592.6 32.5 599.7 28.2 611.2 28.2H613.4V46.6H611.2C596.1 46.6 587 55.4999 587 69.8999V100.2Z" fill="#FFFDF8"/>
<path d="M946.1 102.4C926.3 102.4 910.8 86.1 910.8 65.2C910.8 44.3 926.3 28 946.1 28C965.9 28 965.1 32.2 970.8 39.7V30.2H986.6V100H970.8V90.6C965.4 98.1 956.7 102.2 946.1 102.2V102.4ZM948.9 86.8C960.8 86.8 969 78 969 65.4C969 52.8 960.8 43.9 948.9 43.9C937 43.9 928.6 52.7 928.6 65.3C928.6 77.9 937 86.8 948.9 86.8Z" fill="#FFFDF8"/>
<path d="M855.6 100.2H837.4V2.3999H872.9C894.3 2.3999 909.2 13.9999 909.2 33.2999C909.2 52.5999 894 64.1999 872.6 64.1999H855.6V100.2ZM855.6 18.1999V48.8999H872.5C884.4 48.8999 890.9 43.4999 890.9 33.4999C890.9 23.4999 884.5 18.0999 872.6 18.0999H855.6V18.1999Z" fill="#FFFDF8"/>
<path d="M739.9 102.4C717.3 102.4 701.5 87.1999 701.5 65.4999C701.5 43.7999 717 28.0999 739.2 28.0999C761.4 28.0999 773.7 42.0999 773.7 61.9999C773.7 81.8999 773.4 66.9999 773 69.7999H718.5C718.5 80.2999 727.6 87.4999 740.7 87.4999C753.8 87.4999 755.9 85.4999 762.5 80.6999L769.5 93.2999C761.7 99.3998 749.1 102.4 739.9 102.4ZM719.5 56.9999H755.8C755.5 47.8999 749 41.7999 738.8 42.0999C728.3 41.7999 720.9 47.9999 719.5 56.9999Z" fill="#FFFDF8"/>
<path d="M651 102.4C630.3 102.4 615.9 87.1999 615.9 65.1999C615.9 43.1999 630.6 27.9999 651.4 27.9999C660.3 28.0999 668.6 31.4999 674.6 37.4999V2.3999H692.5V100.2H676.7V91.0999C671 98.3999 661.8 102.4 651 102.4ZM654.3 86.5999C666.2 86.5999 674.6 77.8999 674.6 65.4999C674.6 53.0999 666.2 43.9999 654.3 43.8999C642.1 43.8999 633.8 52.6999 633.8 65.2999C633.8 77.8999 642.2 86.6999 654.3 86.6999V86.5999Z" fill="#FFFDF8"/>
<path d="M521.9 102.4C500.5 102.4 483.6 86.1 483.6 65.2C483.6 44.3 500.5 28 521.9 28C543.3 28 560.2 44.3 560.2 65.2C560.2 86.1 543.3 102.4 521.9 102.4ZM521.9 86.6C533.9 86.6 542.3 77.8 542.3 65.2C542.3 52.6 533.9 43.8 521.9 43.8C509.9 43.8 501.5 52.6 501.5 65.2C501.5 77.8 509.9 86.6 521.9 86.6Z" fill="#FFFDF8"/>
<path d="M423.3 16.3999V43.8999H439.2C448.8 43.8999 455.7 38.2999 455.7 30.3999C455.7 22.4999 449.4 16.3999 439.2 16.3999H423.3ZM442.9 100.2H405.2V2.3999H440.3C460.8 2.3999 473.7 11.9999 473.7 27.6999C473.7 43.3999 468 44.5999 458.9 47.7999C468.4 50.5999 477.1 59.2999 477.1 72.4999C477.1 85.6999 464.1 100.2 443 100.2H442.9ZM423.3 57.2999V86.1999H440.3C450.8 86.2999 458.2 80.4999 458.2 71.9999C458.2 63.4999 451.4 57.2999 440.3 57.2999H423.3Z" fill="#FFFDF8"/>
<path d="M250 50.7L273.1 100.7H352.8L374.9 50.7L352.5 0.699951H272.8L249.9 50.7H250Z" fill="#E8F078"/>
<path d="M187.3 0.699951C152.8 0.699951 124.9 23.1 124.9 50.7C124.9 78.2999 152.8 100.7 187.3 100.7C221.8 100.7 249.7 78.2999 249.7 50.7C249.7 23.1 221.8 0.699951 187.3 0.699951Z" fill="#55CCB0"/>
<path d="M0 0.699951H124.9V100.7H0V0.699951Z" fill="#61AEE2"/>
</g>
<defs>
<clipPath id="clip0_153_4013">
<rect width="1117.7" height="101.7" fill="white" transform="translate(0 0.699951)"/>
</clipPath>
</defs>
</svg>
